<?xml version="1.0" standalone="no"?>
<!DOCTYPE svg PUBLIC "-//W3C//DTD SVG 1.1//EN" "http://www.w3.org/Graphics/SVG/1.1/DTD/svg11.dtd" >
<svg>
<metadata>
Created by FontForge 20120731 at Wed Aug 10 09:36:36 2016
 By www
Copyright (c) Mark Simonson, 2005. All rights reserved.
</metadata>
<defs>
<font id="ProximaNovaExtraCondensedW01-SB" horiz-adv-x="402" >
  <font-face 
    font-family="ProximaNovaExtraCondensedW01-SB"
    font-weight="600"
    font-stretch="extra-condensed"
    units-per-em="1000"
    panose-1="2 0 5 6 3 0 0 2 0 4"
    ascent="800"
    descent="-200"
    x-height="483"
    cap-height="667"
    bbox="-99 -199 831 867"
    underline-thickness="50"
    underline-position="-125"
    unicode-range="U+000D-2212"
  />
<missing-glyph horiz-adv-x="464" 
d="M57 752h351v-842h-351v842zM88 722v-782h288v782h-288z" />
    <glyph glyph-name=".notdef" horiz-adv-x="464" 
d="M57 752h351v-842h-351v842zM88 722v-782h288v782h-288z" />
    <glyph glyph-name="glyph1" horiz-adv-x="0" 
 />
    <glyph glyph-name="glyph1" horiz-adv-x="0" 
 />
    <glyph glyph-name="uni000D" unicode="&#xd;" horiz-adv-x="167" 
 />
    <glyph glyph-name="space" unicode=" " horiz-adv-x="167" 
 />
    <glyph glyph-name="exclam" unicode="!" horiz-adv-x="239" 
d="M62 667h115l-17 -469h-80zM74 99q19 19 45 19q27 0 46 -19t19 -45t-19 -45.5t-46 -19.5q-26 0 -45 19.5t-19 45.5t19 45z" />
    <glyph glyph-name="quotedbl" unicode="&#x22;" horiz-adv-x="366" 
d="M63.5 522.5q-13.5 90.5 -13.5 100.5q0 22 16 38t38 16t38 -16t16 -38q0 -10 -13.5 -100.5t-18.5 -123.5h-44q-5 33 -18.5 123.5zM221.5 522.5q-13.5 90.5 -13.5 100.5q0 23 16 38.5t38 15.5q23 0 38.5 -15.5t15.5 -38.5q0 -10 -13.5 -100.5t-18.5 -123.5h-44
q-5 33 -18.5 123.5z" />
    <glyph glyph-name="numbersign" unicode="#" horiz-adv-x="441" 
d="M218 177h-67l-41 -177h-72l41 177h-63l14 63h64l43 187h-64l13 62h65l42 178h72l-41 -178h66l41 178h72l-41 -178h63l-13 -62h-65l-43 -187h66l-14 -63h-67l-41 -177h-73zM209 427l-42 -187h64l44 187h-66z" />
    <glyph glyph-name="dollar" unicode="$" horiz-adv-x="369" 
d="M318 60.5q-32 -47.5 -87 -64.5v-96h-73v88q-87 6 -142 64l47 82q19 -25 48 -39t58 -14q33 0 54 24t21 62q0 40 -21.5 67t-67.5 63q-39 31 -63 55t-41 61t-17 88q0 63 33 109.5t91 61.5v96h73v-91q67 -8 109 -50l-42 -80q-37 38 -89 38q-30 0 -49.5 -22t-19.5 -57
q0 -34 20.5 -59t63.5 -59q39 -31 64.5 -57.5t43.5 -65.5t18 -92q0 -65 -32 -112.5z" />
    <glyph glyph-name="percent" unicode="%" horiz-adv-x="580" 
d="M58.5 630q34.5 47 91.5 47t91.5 -47t34.5 -119q0 -71 -34.5 -117.5t-91.5 -46.5t-91.5 46.5t-34.5 117.5q0 72 34.5 119zM405 667h47l-277 -667h-46zM194 587q-16 29 -44 29t-44 -29t-16 -76q0 -46 16 -75t44 -29t44 29t16 75q0 47 -16 76zM338.5 271q34.5 47 91.5 47
t91.5 -47t34.5 -119q0 -71 -34.5 -117.5t-91.5 -46.5t-91.5 46.5t-34.5 117.5q0 72 34.5 119zM474 228.5q-16 29.5 -44 29.5t-44 -29.5t-16 -76.5q0 -46 16 -74.5t44 -28.5t44 28.5t16 74.5q0 47 -16 76.5z" />
    <glyph glyph-name="ampersand" unicode="&#x26;" horiz-adv-x="426" 
d="M325 0l-30 50q-52 -62 -123 -62q-62 0 -101.5 48.5t-39.5 132.5q0 68 26 114t72 86q-36 93 -36 144q0 73 34 118.5t88 45.5q48 0 82 -39t34 -97q0 -44 -15 -77.5t-35 -56t-58 -57.5q23 -49 38 -77q8 -15 35 -65q13 41 32 124l76 -34q-25 -105 -59 -172q24 -39 81 -126
h-101zM194 426q27 26 41.5 52.5t14.5 59.5t-10 51t-25 18q-20 0 -29 -22.5t-9 -71.5q0 -33 17 -87zM256 116q-38 69 -52 95l-40 78q-38 -52 -38 -115q0 -49 18 -79.5t46 -30.5q36 0 66 52z" />
    <glyph glyph-name="quotesingle" unicode="'" horiz-adv-x="208" 
d="M63.5 522.5q-13.5 90.5 -13.5 100.5q0 22 16 38t38 16t38 -16t16 -38q0 -10 -13.5 -100.5t-18.5 -123.5h-44q-5 33 -18.5 123.5z" />
    <glyph glyph-name="parenleft" unicode="(" horiz-adv-x="237" 
d="M47 243q0 235 102 442l68 -29q-33 -100 -50 -199t-17 -214q0 -114 17 -213.5t50 -198.5l-68 -30q-102 207 -102 442z" />
    <glyph glyph-name="parenright" unicode=")" horiz-adv-x="237" 
d="M70 457q-17 99 -50 199l67 29q103 -206 103 -442t-103 -442l-67 30q33 99 50 198.5t17 213.5q0 115 -17 214z" />
    <glyph glyph-name="asterisk" unicode="*" horiz-adv-x="313" 
d="M136 494l-95 -61l-26 45l100 51l-100 51l26 45l95 -61l-5 113h51l-5 -113l95 61l26 -45l-101 -51l101 -51l-26 -45l-95 61l5 -113h-51z" />
    <glyph glyph-name="plus" unicode="+" horiz-adv-x="381" 
d="M224 157h-67v149h-128v62h128v143h67v-143h128v-62h-128v-149z" />
    <glyph glyph-name="comma" unicode="," horiz-adv-x="239" 
d="M57 -95q25 15 45 42t24 52q-4 -2 -15 -2q-24 0 -40 17t-16 42q0 26 18.5 44t44.5 18q30 0 50.5 -23t20.5 -63q0 -48 -24.5 -91t-64.5 -71z" />
    <glyph glyph-name="hyphen" unicode="-" horiz-adv-x="238" 
d="M30 282h178v-81h-178v81z" />
    <glyph glyph-name="period" unicode="." horiz-adv-x="239" 
d="M74.5 99q19.5 19 45.5 19t45 -19t19 -45t-19 -45t-45 -19t-45.5 19t-19.5 45t19.5 45z" />
    <glyph glyph-name="slash" unicode="/" horiz-adv-x="216" 
d="M147 687h69l-147 -707h-69z" />
    <glyph glyph-name="zero" unicode="0" horiz-adv-x="436" 
d="M80 576.5q44 100.5 138 100.5t138 -100.5t44 -243.5t-43.5 -244t-138.5 -101q-94 0 -138 101.5t-44 243.5q0 143 44 243.5zM278.5 519q-14.5 65 -60.5 65t-60.5 -65.5t-14.5 -185.5q0 -121 14.5 -186.5t60.5 -65.5t60.5 65.5t14.5 186.5t-14.5 186z" />
    <glyph glyph-name="one" unicode="1" horiz-adv-x="324" 
d="M163 531l-95 -101l-61 64l169 173h91v-667h-104v531z" />
    <glyph glyph-name="two" unicode="2" horiz-adv-x="419" 
d="M46 87q107 151 153 221.5t60.5 108t14.5 77.5q0 38 -20 64t-52 26q-64 0 -103 -78l-69 61q32 55 74 82.5t102 27.5q79 0 126.5 -50t47.5 -131q0 -45 -16 -91.5t-57 -116.5t-125 -196h200v-92h-336v87z" />
    <glyph glyph-name="three" unicode="3" horiz-adv-x="418" 
d="M97 158q39 -77 101 -77q81 0 81 108q0 57 -25.5 81.5t-59.5 24.5q-30 0 -39 -2v95q8 -1 35 -1q38 0 60 24.5t22 71.5q0 101 -74 101q-31 0 -55.5 -18.5t-40.5 -51.5l-70 55q27 52 72 80t99 28q78 0 125 -45t47 -134q0 -53 -28 -97t-73 -56q47 -10 78 -56t31 -107
q0 -87 -47.5 -140.5t-132.5 -53.5q-60 0 -106.5 30.5t-72.5 79.5z" />
    <glyph glyph-name="four" unicode="4" horiz-adv-x="403" 
d="M233 158h-218v93l199 416h123v-417h51v-92h-51v-158h-104v158zM101 250h132v292z" />
    <glyph glyph-name="five" unicode="5" horiz-adv-x="423" 
d="M103 158q35 -77 99 -77q37 0 59 37.5t22 89.5q0 63 -18.5 95t-54.5 32q-26 0 -45 -13t-38 -45l-78 22v368h311v-92h-207v-203q15 25 40 39.5t54 14.5q65 0 104 -56t39 -160q0 -62 -22 -112.5t-63.5 -80t-96.5 -29.5q-63 0 -104.5 27.5t-71.5 82.5z" />
    <glyph glyph-name="six" unicode="6" horiz-adv-x="421" 
d="M87.5 580.5q51.5 96.5 152.5 96.5q43 0 79.5 -21.5t57.5 -58.5l-57 -73q-13 30 -31.5 45t-45.5 15q-51 0 -76 -70t-25 -166v-11q14 38 43 62.5t66 24.5q39 0 71 -24.5t50.5 -72.5t18.5 -117q0 -61 -20 -111.5t-58.5 -80.5t-89.5 -30q-99 0 -143 97t-44 248t51.5 247.5z
M265.5 304q-18.5 30 -48.5 30q-48 0 -75 -86q5 -167 75 -167q35 0 51 36t16 89q0 68 -18.5 98z" />
    <glyph glyph-name="seven" unicode="7" horiz-adv-x="364" 
d="M231 575h-212v92h326v-72l-160 -595h-111z" />
    <glyph glyph-name="eight" unicode="8" horiz-adv-x="419" 
d="M66 273.5q33 50.5 76 70.5q-41 18 -71 62t-30 102q0 82 48.5 125.5t120.5 43.5q71 0 120 -43.5t49 -125.5q0 -58 -30.5 -102t-71.5 -62q43 -20 76.5 -70t33.5 -109q0 -83 -46 -130t-131 -47q-86 0 -131.5 46.5t-45.5 129.5q0 59 33 109.5zM258.5 559q-16.5 25 -48.5 25
t-49 -25t-17 -69q0 -46 23.5 -74t42.5 -37q19 9 42 37t23 74q0 44 -16.5 69zM268 243q-14 28 -31.5 44.5t-26.5 18.5q-10 -2 -27.5 -18.5t-31 -44.5t-13.5 -64q0 -47 19.5 -72.5t52.5 -25.5q31 0 51.5 25.5t20.5 72.5q0 36 -14 64z" />
    <glyph glyph-name="nine" unicode="9" horiz-adv-x="421" 
d="M101 142q13 -30 31.5 -45t45.5 -15q49 0 75 69.5t26 165.5v12q-15 -38 -43.5 -62.5t-65.5 -24.5q-61 0 -100.5 55.5t-39.5 158.5q0 61 20 111.5t58.5 80.5t89.5 30q99 0 143 -97t44 -248t-52 -247.5t-153 -96.5q-43 0 -79.5 21.5t-56.5 58.5zM205 585q-35 0 -52 -36
t-17 -89q0 -68 19 -98t48 -30q48 0 75 86q-3 167 -73 167z" />
    <glyph glyph-name="colon" unicode=":" horiz-adv-x="239" 
d="M74.5 471q19.5 19 45.5 19t45 -19t19 -45t-19 -45t-45 -19t-45.5 19t-19.5 45t19.5 45zM74.5 99q19.5 19 45.5 19t45 -19t19 -45t-19 -45t-45 -19t-45.5 19t-19.5 45t19.5 45z" />
    <glyph glyph-name="semicolon" unicode=";" horiz-adv-x="239" 
d="M74.5 381q-19.5 19 -19.5 45t19.5 45t45.5 19t45 -19t19 -45t-19 -45t-45 -19t-45.5 19zM57 -92q24 14 44.5 41t24.5 52q-4 -2 -15 -2q-24 0 -40 16.5t-16 42.5t18.5 44.5t44.5 18.5q30 0 50.5 -23.5t20.5 -62.5q0 -48 -24.5 -91t-64.5 -72z" />
    <glyph glyph-name="less" unicode="&#x3c;" horiz-adv-x="381" 
d="M29 368l323 143v-73l-249 -104l249 -102v-74l-323 143v67z" />
    <glyph glyph-name="equal" unicode="=" horiz-adv-x="381" 
d="M29 461h323v-62h-323v62zM29 269h323v-62h-323v62z" />
    <glyph glyph-name="greater" unicode="&#x3e;" horiz-adv-x="381" 
d="M29 232l249 102l-249 104v73l323 -143v-67l-323 -143v74z" />
    <glyph glyph-name="question" unicode="?" horiz-adv-x="320" 
d="M113.5 346.5q13.5 28.5 38.5 61.5q23 30 34.5 53t11.5 54q0 28 -17.5 50t-45.5 22q-18 0 -32 -7.5t-28 -24.5l-44 66q25 28 58 42.5t69 14.5q64 0 103.5 -41t39.5 -102q0 -44 -15.5 -76t-46.5 -73q-26 -35 -38.5 -59t-12.5 -54q0 -13 5 -26.5t12 -22.5l-80 -32
q-25 34 -25 86q0 40 13.5 68.5zM117.5 99q19.5 19 45.5 19t45 -19t19 -45t-19 -45t-45 -19t-45.5 19t-19.5 45t19.5 45z" />
    <glyph glyph-name="at" unicode="@" horiz-adv-x="620" 
d="M81.5 420.5q46.5 98.5 125 158.5t169.5 60q61 0 108.5 -29t74 -84t26.5 -130q0 -84 -22.5 -155.5t-59 -113.5t-78.5 -42q-33 0 -54.5 18.5t-25.5 49.5l-1 8q-22 -35 -48.5 -55.5t-62.5 -20.5q-39 0 -66 29.5t-27 96.5q0 69 23.5 136t66.5 109.5t97 42.5q29 0 47 -19
t25 -50l11 53h84l-56 -263q-3 -15 -3 -25q0 -24 6.5 -34t22.5 -10q15 0 35 30t34 86t14 128q0 99 -47 153.5t-126 54.5q-80 0 -149.5 -56t-110.5 -146t-41 -185q0 -113 52 -182t147 -69q40 0 74 14t69 42l18 -28q-80 -63 -166 -63q-108 0 -170 76.5t-62 208.5
q0 107 46.5 205.5zM386 371q-12 59 -47 59q-34 0 -59 -33t-38.5 -81.5t-13.5 -91.5q0 -71 44 -71q26 0 44.5 18.5t37.5 51.5z" />
    <glyph glyph-name="A" unicode="A" horiz-adv-x="398" 
d="M265 136h-132l-23 -136h-107l136 667h120l136 -667h-107zM145 228h108l-54 320z" />
    <glyph glyph-name="B" unicode="B" horiz-adv-x="431" 
d="M57 667h176q75 0 114 -47t39 -123q0 -61 -25 -100t-68 -53q45 -7 73.5 -54.5t28.5 -109.5q0 -83 -38.5 -131.5t-116.5 -48.5h-183v667zM208 386q71 0 71 94q0 95 -71 95h-47v-189h47zM212 92q76 0 76 101q0 45 -19 73t-57 28h-51v-202h51z" />
    <glyph glyph-name="C" unicode="C" horiz-adv-x="412" 
d="M84 82.5q-48 94.5 -48 250.5q0 157 48 251t146 94q66 0 100.5 -40t54.5 -105l-84 -31q-12 42 -28 62.5t-43 20.5q-46 0 -66.5 -67.5t-20.5 -184.5t20.5 -184.5t66.5 -67.5q31 0 47.5 26t24.5 73l85 -31q-17 -70 -53 -115.5t-104 -45.5q-98 0 -146 94.5z" />
    <glyph glyph-name="D" unicode="D" horiz-adv-x="455" 
d="M57 667h149q108 0 160.5 -91t52.5 -243q0 -153 -52 -243t-160 -90h-150v667zM206 92q54 0 80 63t26 178q0 116 -26 179t-80 63h-45v-483h45z" />
    <glyph glyph-name="E" unicode="E" horiz-adv-x="367" 
d="M57 667h273v-92h-169v-189h162v-92h-162v-202h169v-92h-273v667z" />
    <glyph glyph-name="F" unicode="F" horiz-adv-x="365" 
d="M57 667h273v-92h-169v-189h162v-92h-162v-294h-104v667z" />
    <glyph glyph-name="G" unicode="G" horiz-adv-x="435" 
d="M84.5 585.5q48.5 92.5 145.5 92.5q61 0 99.5 -40t55.5 -105l-84 -31q-11 41 -27 62t-44 21q-43 0 -65 -64.5t-22 -187.5q0 -122 22 -187t65 -65t65 35v144h-81v92h174v-280q-62 -84 -158 -84q-97 0 -145.5 92.5t-48.5 252.5t48.5 252.5z" />
    <glyph glyph-name="H" unicode="H" horiz-adv-x="463" 
d="M302 297h-141v-297h-104v667h104v-278h141v278h105v-667h-105v297z" />
    <glyph glyph-name="I" unicode="I" horiz-adv-x="218" 
d="M57 667h104v-667h-104v667z" />
    <glyph glyph-name="J" unicode="J" horiz-adv-x="337" 
d="M39 113q26 -32 65 -32q73 0 73 80v506h104v-511q0 -85 -44.5 -126.5t-121.5 -41.5q-64 0 -108 40z" />
    <glyph glyph-name="K" unicode="K" horiz-adv-x="448" 
d="M204 269l-43 -85v-184h-104v667h104v-325l153 325h115l-165 -315l178 -352h-119z" />
    <glyph glyph-name="L" unicode="L" horiz-adv-x="351" 
d="M57 667h104v-575h169v-92h-273v667z" />
    <glyph glyph-name="M" unicode="M" horiz-adv-x="591" 
d="M432 425l-118 -425h-37l-116 425v-425h-104v667h135l104 -373l106 373h133v-667h-103v425z" />
    <glyph glyph-name="N" unicode="N" horiz-adv-x="463" 
d="M161 386v-386h-104v667h104l141 -375v375h105v-667h-99z" />
    <glyph glyph-name="O" unicode="O" horiz-adv-x="459" 
d="M83.5 583q47.5 95 145.5 95t146 -95t48 -250t-48 -250t-146 -95t-145.5 94.5t-47.5 250.5q0 155 47.5 250zM295.5 516.5q-20.5 68.5 -66.5 68.5q-45 0 -65.5 -68.5t-20.5 -183.5q0 -114 20.5 -183t65.5 -69q46 0 66.5 69t20.5 183q0 115 -20.5 183.5z" />
    <glyph glyph-name="P" unicode="P" horiz-adv-x="418" 
d="M57 667h161q87 0 131.5 -58.5t44.5 -147.5t-44.5 -147.5t-131.5 -58.5h-57v-255h-104v667zM266.5 544q-20.5 31 -58.5 31h-47v-228h47q38 0 58.5 31t20.5 83t-20.5 83z" />
    <glyph glyph-name="Q" unicode="Q" horiz-adv-x="459" 
d="M404.5 160.5q-18.5 -75.5 -57.5 -119.5l18 -47l-74 -29l-12 31q-24 -8 -50 -8q-98 0 -145.5 94.5t-47.5 250.5q0 155 47.5 250t145.5 95t146 -95t48 -250q0 -97 -18.5 -172.5zM245 84l-50 131l74 29l31 -80q16 65 16 169q0 115 -20.5 183.5t-66.5 68.5q-45 0 -65.5 -68.5
t-20.5 -183.5q0 -114 20.5 -183t65.5 -69q9 0 16 3z" />
    <glyph glyph-name="R" unicode="R" horiz-adv-x="438" 
d="M209 255h-48v-255h-104v667h166q49 0 88 -25.5t61 -71.5t22 -106q0 -78 -26.5 -122.5t-62.5 -61.5l95 -280h-112zM266.5 544q-20.5 31 -58.5 31h-47v-228h47q38 0 58.5 31t20.5 83t-20.5 83z" />
    <glyph glyph-name="S" unicode="S" horiz-adv-x="378" 
d="M63 134q19 -25 48 -39t58 -14q33 0 54 24t21 62q0 40 -21.5 67t-67.5 63q-39 31 -63 55t-41 61t-17 88q0 49 21 89.5t60 64t91 23.5q39 0 74 -13t60 -38l-42 -80q-37 38 -89 38q-30 0 -49.5 -22t-19.5 -57q0 -34 20.5 -59t63.5 -59q39 -31 64.5 -57.5t43.5 -65.5t18 -92
t-21.5 -95t-61.5 -66t-92 -24q-100 0 -159 64z" />
    <glyph glyph-name="T" unicode="T" horiz-adv-x="346" 
d="M121 575h-103v92h310v-92h-103v-575h-104v575z" />
    <glyph glyph-name="U" unicode="U" horiz-adv-x="464" 
d="M57 667h104v-488q0 -99 71 -99t71 99v488h104v-483q0 -97 -49.5 -146.5t-125.5 -49.5t-125.5 49.5t-49.5 146.5v483z" />
    <glyph glyph-name="V" unicode="V" horiz-adv-x="398" 
d="M3 667h107l89 -532l89 532h107l-136 -667h-120z" />
    <glyph glyph-name="W" unicode="W" horiz-adv-x="587" 
d="M293 466l-61 -466h-107l-111 667h107l62 -483l68 483h85l69 -483l61 483h107l-111 -667h-107z" />
    <glyph glyph-name="X" unicode="X" horiz-adv-x="408" 
d="M204 246l-88 -246h-115l143 340l-135 327h115l80 -235l80 235h116l-136 -327l144 -340h-116z" />
    <glyph glyph-name="Y" unicode="Y" horiz-adv-x="405" 
d="M151 279l-154 388h112l94 -285l95 285h110l-153 -388v-279h-104v279z" />
    <glyph glyph-name="Z" unicode="Z" horiz-adv-x="360" 
d="M31 89l175 486h-175v92h292v-85l-178 -490h185v-92h-299v89z" />
    <glyph glyph-name="bracketleft" unicode="[" horiz-adv-x="195" 
d="M35 678h142v-66h-72v-736h72v-66h-142v868z" />
    <glyph glyph-name="backslash" unicode="\" horiz-adv-x="216" 
d="M69 687l147 -707h-68l-147 707h68z" />
    <glyph glyph-name="bracketright" unicode="]" horiz-adv-x="195" 
d="M17 -124h72v736h-72v66h143v-868h-143v66z" />
    <glyph glyph-name="asciicircum" unicode="^" horiz-adv-x="334" 
d="M167 590l-78 -257h-70l113 334h70l113 -334h-70z" />
    <glyph glyph-name="underscore" unicode="_" horiz-adv-x="279" 
d="M-3 -40h285v-66h-285v66z" />
    <glyph glyph-name="grave" unicode="`" horiz-adv-x="164" 
d="M0 700h85l79 -144h-61z" />
    <glyph glyph-name="a" unicode="a" horiz-adv-x="398" 
d="M254 45q-16 -27 -43.5 -42t-54.5 -15q-57 0 -92.5 44t-35.5 117q0 72 35.5 115t92.5 43q27 0 55 -14t43 -40v67q0 95 -74 95q-51 0 -97 -49l-36 66q29 32 70.5 47.5t80.5 15.5q73 0 111.5 -38.5t38.5 -116.5v-340h-94v45zM254 183q-11 26 -29 42t-38 16
q-32 0 -48.5 -26.5t-16.5 -67.5t16.5 -67.5t48.5 -26.5q20 0 38 15.5t29 41.5v73z" />
    <glyph glyph-name="b" unicode="b" horiz-adv-x="406" 
d="M50 667h94v-247q14 37 39.5 56t53.5 19q68 0 103 -69t35 -185q0 -117 -35 -185t-103 -68q-26 0 -52 19.5t-41 54.5v-62h-94v667zM170.5 90.5q17.5 -19.5 37.5 -19.5q70 0 70 170q0 171 -70 171q-20 0 -37.5 -20t-26.5 -49v-204q9 -29 26.5 -48.5z" />
    <glyph glyph-name="c" unicode="c" horiz-adv-x="333" 
d="M77.5 424.5q46.5 70.5 127.5 70.5q69 0 109 -44l-33 -72q-15 17 -29.5 25t-31.5 8q-45 0 -68.5 -48.5t-23.5 -121.5t23.5 -122t68.5 -49q17 0 31.5 8t29.5 25l33 -72q-37 -44 -109 -44q-54 0 -93.5 33t-60 90.5t-20.5 130.5q0 112 46.5 182.5z" />
    <glyph glyph-name="d" unicode="d" horiz-adv-x="406" 
d="M262 62q-15 -35 -41 -54.5t-52 -19.5q-68 0 -103 68t-35 185q0 116 35 185t103 69q28 0 53.5 -19t39.5 -56v247h94v-667h-94v62zM262 344q-8 28 -26 48t-38 20q-70 0 -70 -171q0 -170 70 -170q20 0 38 20t26 48v205z" />
    <glyph glyph-name="e" unicode="e" horiz-adv-x="391" 
d="M74.5 424q43.5 71 126.5 71t123 -69.5t40 -181.5v-33h-241q1 -66 26 -106t73 -40q21 0 42.5 13.5t37.5 38.5l49 -51q-26 -37 -62 -57.5t-76 -20.5q-88 0 -135 70t-47 184q0 111 43.5 182zM140.5 375.5q-17.5 -42.5 -17.5 -97.5h149q0 58 -16.5 99t-57.5 41
q-40 0 -57.5 -42.5z" />
    <glyph glyph-name="f" unicode="f" horiz-adv-x="239" 
d="M65 401h-46v82h46v63q0 62 29.5 96.5t79.5 34.5q34 0 61 -12l-17 -76q-9 4 -20 4q-18 0 -28.5 -12.5t-10.5 -34.5v-63h63v-82h-63v-401h-94v401z" />
    <glyph glyph-name="g" unicode="g" horiz-adv-x="406" 
d="M81 -67q20 -22 45 -34t52 -12q39 0 61.5 27t22.5 83v79q-15 -36 -41 -56t-52 -20q-68 0 -103 65t-35 182q0 115 35 181.5t103 66.5q28 0 53.5 -19t39.5 -56v63h94v-474q0 -111 -46.5 -158t-122.5 -47q-88 0 -140 51zM262 344q-8 28 -26 48t-38 20q-38 0 -54 -44t-16 -121
t15.5 -120.5t54.5 -43.5q20 0 38 20t26 48v193z" />
    <glyph glyph-name="h" unicode="h" 
d="M258 357q0 55 -41 55q-23 0 -42.5 -20.5t-30.5 -49.5v-342h-94v667h94v-249q16 31 47.5 54t63.5 23q51 0 74 -26.5t23 -80.5v-388h-94v357z" />
    <glyph glyph-name="i" unicode="i" horiz-adv-x="194" 
d="M55 563.5q-18 17.5 -18 41.5q0 25 18 42.5t42 17.5q25 0 42.5 -17.5t17.5 -42.5t-17.5 -42t-42.5 -17q-24 0 -42 17.5zM50 483h94v-483h-94v483z" />
    <glyph glyph-name="j" unicode="j" horiz-adv-x="194" 
d="M55 563.5q-18 17.5 -18 41.5q0 25 18 42.5t42 17.5q25 0 42.5 -17.5t17.5 -42.5t-17.5 -42t-42.5 -17q-24 0 -42 17.5zM144 -66q0 -130 -110 -130q-24 0 -44 7l13 81q6 -2 14 -2q33 0 33 45v548h94v-549z" />
    <glyph glyph-name="k" unicode="k" horiz-adv-x="385" 
d="M193 204l-49 -87v-117h-94v667h94v-426l127 242h102l-118 -215l120 -268h-102z" />
    <glyph glyph-name="l" unicode="l" horiz-adv-x="194" 
d="M50 667h94v-667h-94v667z" />
    <glyph glyph-name="m" unicode="m" horiz-adv-x="610" 
d="M466 356q0 56 -41 56q-23 0 -43 -21t-30 -49v-342h-94v356q0 56 -41 56q-23 0 -43 -21t-30 -49v-342h-94v483h94v-65q14 30 46 53.5t65 23.5q39 0 64.5 -20.5t29.5 -60.5q15 33 47.5 57t66.5 24q97 0 97 -108v-387h-94v356z" />
    <glyph glyph-name="n" unicode="n" 
d="M258 356q0 56 -41 56q-23 0 -42.5 -20.5t-30.5 -49.5v-342h-94v483h94v-65q16 31 47.5 54t63.5 23q97 0 97 -108v-387h-94v356z" />
    <glyph glyph-name="o" unicode="o" 
d="M73.5 60.5q-42.5 72.5 -42.5 181.5t42.5 181t127.5 72t127 -72t42 -181t-42 -181.5t-127 -72.5t-127.5 72.5zM273 242q0 170 -72 170t-72 -170q0 -171 72 -171t72 171z" />
    <glyph glyph-name="p" unicode="p" horiz-adv-x="406" 
d="M50 -184v667h94v-62q15 35 41 54.5t52 19.5q68 0 103 -68t35 -185q0 -116 -35 -185t-103 -69q-28 0 -53.5 19t-39.5 56v-247h-94zM208 412q-20 0 -38 -19.5t-26 -47.5v-206q9 -28 26.5 -48t37.5 -20q70 0 70 171q0 170 -70 170z" />
    <glyph glyph-name="q" unicode="q" horiz-adv-x="406" 
d="M262 -184v247q-14 -37 -39.5 -56t-53.5 -19q-68 0 -103 69t-35 185q0 117 35 185t103 68q26 0 52 -19.5t41 -54.5v62h94v-667h-94zM262 345q-8 28 -26 47.5t-38 19.5q-70 0 -70 -170q0 -171 70 -171q20 0 38 20t26 48v206z" />
    <glyph glyph-name="r" unicode="r" horiz-adv-x="268" 
d="M50 483h94v-71q16 36 46 59t64 23v-94q-11 3 -20 3q-27 0 -51 -20t-39 -50v-333h-94v483z" />
    <glyph glyph-name="s" unicode="s" horiz-adv-x="330" 
d="M57 115q20 -24 45 -38t52 -14q28 0 46.5 16.5t18.5 43.5q0 26 -17.5 43t-55.5 39q-37 22 -59 39.5t-38.5 47t-16.5 73.5q0 56 38.5 93t104.5 37q38 0 71.5 -14.5t58.5 -41.5l-40 -63q-15 20 -38.5 32t-49.5 12q-25 0 -41 -15t-16 -37q0 -24 17 -40t53 -37
q37 -21 60.5 -39.5t40.5 -49.5t17 -76q0 -61 -41.5 -99.5t-104.5 -38.5q-97 0 -146 62z" />
    <glyph glyph-name="t" unicode="t" horiz-adv-x="247" 
d="M88.5 16q-23.5 28 -23.5 87v298h-47v82h47v132h94v-132h63v-82h-63v-281q0 -25 6.5 -37t21.5 -12q18 0 30 15l22 -72q-26 -26 -74 -26q-53 0 -76.5 28z" />
    <glyph glyph-name="u" unicode="u" 
d="M258 63q-16 -31 -46.5 -53t-64.5 -22q-51 0 -74 26.5t-23 80.5v388h94v-357q0 -55 41 -55q23 0 43 20t30 48v344h94v-483h-94v63z" />
    <glyph glyph-name="v" unicode="v" horiz-adv-x="357" 
d="M5 483h100l73 -366l75 366h99l-123 -483h-102z" />
    <glyph glyph-name="w" unicode="w" horiz-adv-x="579" 
d="M290 355l-75 -355h-98l-108 483h97l66 -354l69 354h92l73 -354l67 354h98l-109 -483h-98z" />
    <glyph glyph-name="x" unicode="x" horiz-adv-x="352" 
d="M176 173l-69 -173h-100l111 244l-106 239h100l64 -168l64 168h99l-105 -239l111 -244h-101z" />
    <glyph glyph-name="y" unicode="y" horiz-adv-x="357" 
d="M74 -113q16 0 25.5 9t15.5 30l16 61l-126 496h100l73 -364l75 364h99l-148 -577q-16 -58 -43 -80t-75 -22q-13 0 -27.5 2t-21.5 5l14 82q10 -6 23 -6z" />
    <glyph glyph-name="z" unicode="z" horiz-adv-x="321" 
d="M30 72l146 329h-146v82h257v-69l-146 -332h150v-82h-261v72z" />
    <glyph glyph-name="braceleft" unicode="{" horiz-adv-x="212" 
d="M89.5 -158.5q-32.5 31.5 -32.5 80.5v225q0 29 -13.5 48.5t-38.5 19.5v58q25 0 38.5 19.5t13.5 48.5v224q0 49 32.5 81t76.5 32h29v-66h-29q-16 0 -27.5 -13t-11.5 -34v-232q0 -70 -45 -89q45 -19 45 -89v-233q0 -20 11.5 -33.5t27.5 -13.5h29v-65h-29q-44 0 -76.5 31.5z
" />
    <glyph glyph-name="bar" unicode="|" horiz-adv-x="179" 
d="M57 687h65v-707h-65v707z" />
    <glyph glyph-name="braceright" unicode="}" horiz-adv-x="212" 
d="M46 -125q16 0 27.5 13.5t11.5 33.5v233q0 70 45 89q-45 19 -45 89v232q0 21 -11.5 34t-27.5 13h-29v66h29q44 0 76.5 -32t32.5 -81v-224q0 -29 13.5 -48.5t38.5 -19.5v-58q-25 0 -38.5 -19.5t-13.5 -48.5v-225q0 -49 -32.5 -80.5t-76.5 -31.5h-29v65h29z" />
    <glyph glyph-name="asciitilde" unicode="~" horiz-adv-x="407" 
d="M352 487.5q-23 -68.5 -88 -68.5q-40 0 -57.5 31.5t-28.5 86.5q-8 35 -15 51t-20 16q-16 0 -24.5 -18.5t-13.5 -56t-11 -111.5l-67 7q5 103 28.5 172t87.5 69q28 0 45 -17.5t25 -40.5t17 -61q8 -35 14.5 -51t19.5 -16q16 0 24.5 18t13.5 56t11 113l67 -6
q-5 -105 -28 -173.5z" />
    <glyph glyph-name="uni00A0" unicode="&#xa0;" horiz-adv-x="167" 
 />
    <glyph glyph-name="exclamdown" unicode="&#xa1;" horiz-adv-x="239" 
d="M165.5 474q19.5 -19 19.5 -45t-19.5 -45t-45.5 -19t-45.5 19t-19.5 45t19.5 45t45.5 19t45.5 -19zM160 285l18 -469h-116l18 469h80z" />
    <glyph glyph-name="cent" unicode="&#xa2;" horiz-adv-x="333" 
d="M281 104l33 -72q-25 -30 -68 -40v-92h-71v91q-68 13 -106 82t-38 169t38 168.5t106 81.5v73h71v-75q42 -10 68 -39l-33 -72q-18 21 -35 28v-331q17 7 35 28zM140 149.5q12 -41.5 35 -61.5v307q-23 -20 -35 -61t-12 -92t12 -92.5z" />
    <glyph glyph-name="sterling" unicode="&#xa3;" horiz-adv-x="405" 
d="M393 31q-13 -18 -43.5 -30.5t-62.5 -12.5q-25 0 -41.5 6t-35.5 17q-16 10 -26.5 14t-24.5 4q-35 0 -82 -36l-33 73q38 25 60.5 64.5t22.5 79.5q0 30 -12 64h-85v63h55q-18 37 -28 69.5t-10 75.5q0 53 23.5 98t63.5 71t88 26q59 0 100 -32t53 -92l-83 -36q-9 36 -23.5 55
t-41.5 19q-32 0 -50 -29t-18 -82q0 -38 7.5 -64t23.5 -59l9 -20h74v-63h-55q3 -18 3 -39q0 -41 -16.5 -76.5t-43.5 -58.5q18 9 37 9q16 0 26.5 -3.5t26.5 -11.5q14 -7 24 -10t21 -3q21 0 38.5 9t27.5 23z" />
    <glyph glyph-name="currency" unicode="&#xa4;" horiz-adv-x="419" 
d="M349 184l71 -71l-57 -57l-66 66q-37 -25 -87 -25q-51 0 -89 27l-64 -65l-57 57l70 70q-30 62 -30 147q0 87 31 149l-71 70l57 57l66 -67q35 26 87 26q50 0 87 -25l66 66l57 -57l-71 -71q30 -59 30 -148q0 -86 -30 -149zM270 224q19 43 19 109q0 65 -19 108t-60 43
t-60 -43t-19 -108q0 -66 19 -109t60 -43t60 43z" />
    <glyph glyph-name="yen" unicode="&#xa5;" horiz-adv-x="405" 
d="M279 341h101v-62h-125v-97h125v-62h-125v-120h-104v120h-128v62h128v97h-128v62h103l-129 326h112l94 -285l95 285h110z" />
    <glyph glyph-name="brokenbar" unicode="&#xa6;" horiz-adv-x="179" 
d="M57 687h65v-316h-65v316zM57 296h65v-316h-65v316z" />
    <glyph glyph-name="section" unicode="&#xa7;" horiz-adv-x="331" 
d="M291 129.5q17 -31.5 17 -72.5q0 -38 -19 -69.5t-52 -50t-75 -18.5q-93 0 -146 62l41 63q15 -20 41.5 -37t55.5 -17q30 0 47.5 19t17.5 46q0 30 -18.5 48.5t-58.5 43.5q-35 21 -57 38.5t-37.5 46t-15.5 69.5q0 39 22 70.5t60 42.5q-44 30 -63 63.5t-19 74.5q0 55 39 90
t96 35q48 0 79.5 -14.5t57.5 -42.5l-40 -57q-22 25 -42.5 35.5t-45.5 10.5t-40.5 -16t-15.5 -41q0 -27 18 -44.5t58 -42.5q36 -22 58 -40t38 -47t16 -70q0 -36 -18 -68t-53 -51q37 -28 54 -59.5zM128.5 356.5q-13.5 -18.5 -13.5 -40.5q0 -28 15 -51t50 -46q23 12 34 30
t11 39q0 59 -51 94q-32 -7 -45.5 -25.5z" />
    <glyph glyph-name="dieresis" unicode="&#xa8;" horiz-adv-x="272" 
d="M21 568.5q-16 15.5 -16 37.5t16 38t38 16q23 0 38.5 -15.5t15.5 -38.5q0 -22 -16 -37.5t-38 -15.5t-38 15.5zM174.5 568.5q-15.5 15.5 -15.5 37.5t15.5 38t37.5 16q23 0 39 -16t16 -38t-16 -37.5t-39 -15.5q-22 0 -37.5 15.5z" />
    <glyph glyph-name="copyright" unicode="&#xa9;" horiz-adv-x="778" 
d="M216.5 34.5q-79.5 46.5 -126 126t-46.5 172.5t46.5 172.5t126 126t172.5 46.5t172.5 -46.5t126 -126t46.5 -172.5t-46.5 -172.5t-126 -126t-172.5 -46.5t-172.5 46.5zM233 603q-72 -42 -114 -114t-42 -156t42 -156t114 -114t156 -42t156 42t114 114t42 156t-42 156
t-114 114t-156 42t-156 -42zM393 121q-57 0 -105 28t-76 76.5t-28 107.5q0 61 28 109.5t75.5 76t105.5 27.5q90 0 146 -66l-27 -27q-20 26 -52 42t-67 16q-45 0 -84 -22.5t-62 -63t-23 -92.5q0 -50 23 -90.5t62 -63.5t84 -23q36 0 67.5 15.5t51.5 42.5l28 -26
q-57 -67 -147 -67z" />
    <glyph glyph-name="ordfeminine" unicode="&#xaa;" horiz-adv-x="292" 
d="M181 358q-11 -18 -29 -29t-41 -11q-39 0 -64 27.5t-25 75.5t25 75.5t64 27.5q23 0 41 -10t29 -27v45q0 30 -13.5 45.5t-38.5 15.5q-35 0 -67 -36l-27 47q21 22 50.5 33t57.5 11q108 0 108 -113v-209h-70v32zM181 448q-14 34 -46 34q-20 0 -31.5 -16.5t-11.5 -42.5
t11.5 -42t31.5 -16q32 0 46 33v50z" />
    <glyph glyph-name="guillemotleft" unicode="&#xab;" horiz-adv-x="359" 
d="M30 243l90 177h75l-90 -177l90 -180h-75zM164 243l90 177h75l-90 -177l90 -180h-75z" />
    <glyph glyph-name="logicalnot" unicode="&#xac;" horiz-adv-x="381" 
d="M287 207v192h-258v62h323v-254h-65z" />
    <glyph glyph-name="uni00AD" unicode="&#xad;" horiz-adv-x="238" 
d="M30 282h178v-81h-178v81z" />
    <glyph glyph-name="registered" unicode="&#xae;" horiz-adv-x="494" 
d="M140.5 281.5q-48.5 28.5 -77 77t-28.5 106.5t28.5 106.5t77 77t106.5 28.5t106.5 -28.5t77 -77t28.5 -106.5t-28.5 -106.5t-77 -77t-106.5 -28.5t-106.5 28.5zM155.5 623q-41.5 -24 -66 -66t-24.5 -92q0 -49 24.5 -91t66 -66.5t91.5 -24.5t91.5 24.5t66 66.5t24.5 91
q0 50 -24.5 92t-66 66t-91.5 24t-91.5 -24zM242 439h-43v-96h-33v243h99q32 0 55 -20.5t23 -53.5q0 -25 -11.5 -41t-26.5 -23.5t-24 -7.5l65 -97h-41zM199 557v-88h66q17 0 30.5 12.5t13.5 30.5q0 19 -13.5 32t-30.5 13h-66z" />
    <glyph glyph-name="macron" unicode="&#xaf;" horiz-adv-x="254" 
d="M0 625h254v-57h-254v57z" />
    <glyph glyph-name="degree" unicode="&#xb0;" horiz-adv-x="298" 
d="M59 461q-37 37 -37 89q0 53 37 90t89 37q34 0 63.5 -17t46.5 -46.5t17 -63.5q0 -52 -37 -89t-90 -37q-52 0 -89 37zM98.5 600q-20.5 -21 -20.5 -50t20.5 -49.5t49.5 -20.5t50.5 20.5t21.5 49.5t-21.5 50t-50.5 21t-49.5 -21z" />
    <glyph glyph-name="plusminus" unicode="&#xb1;" horiz-adv-x="381" 
d="M224 157h-67v149h-128v62h128v143h67v-143h128v-62h-128v-149zM29 96h323v-62h-323v62z" />
    <glyph glyph-name="uni00B2" unicode="&#xb2;" horiz-adv-x="281" 
d="M29 475q71 84 103 124.5t43.5 65t11.5 49.5q0 24 -14 39t-37 15q-21 0 -39.5 -13t-31.5 -36l-45 42q44 66 120 66q54 0 86.5 -29.5t32.5 -81.5q0 -29 -13 -58.5t-41 -68.5t-85 -109h141v-59h-232v54z" />
    <glyph glyph-name="uni00B3" unicode="&#xb3;" horiz-adv-x="281" 
d="M66 432q-32 18 -49 47l48 43q27 -49 71 -49q27 0 40.5 17t13.5 45q0 33 -17 47.5t-41 14.5q-22 0 -28 -1v59q5 -1 25 -1q26 0 41 14t15 42q0 58 -50 58q-21 0 -38.5 -12t-29.5 -33l-46 40q19 31 50 47.5t68 16.5q53 0 85 -27.5t32 -80.5q0 -32 -19.5 -58.5t-47.5 -32.5
q30 -5 51.5 -32.5t21.5 -64.5q0 -53 -33 -85t-90 -32q-41 0 -73 18z" />
    <glyph glyph-name="acute" unicode="&#xb4;" horiz-adv-x="164" 
d="M0 556l79 144h85l-103 -144h-61z" />
    <glyph glyph-name="mu" unicode="&#xb5;" horiz-adv-x="413" 
d="M50 -184v667h94v-357q0 -27 11 -41.5t32 -14.5q23 0 41.5 20t29.5 49v344h94v-368q0 -22 6 -33t22 -11q4 0 14 2l7 -79q-18 -6 -44 -6q-44 0 -67 20.5t-29 64.5q-12 -38 -33 -61.5t-47 -23.5q-25 0 -37 16v-188h-94z" />
    <glyph glyph-name="paragraph" unicode="&#xb6;" horiz-adv-x="449" 
d="M335 616h-85v-716h-51v423q-47 0 -86.5 23t-62.5 62.5t-23 86.5t23 86.5t62.5 62.5t86.5 23h188v-767h-52v716z" />
    <glyph glyph-name="periodcentered" unicode="&#xb7;" horiz-adv-x="239" 
d="M74 199.5q-19 19.5 -19 45.5t19 45t45 19q27 0 46 -19t19 -45t-19 -45.5t-46 -19.5q-26 0 -45 19.5z" />
    <glyph glyph-name="cedilla" unicode="&#xb8;" horiz-adv-x="175" 
d="M20 -121q32 -27 60 -27q18 0 31 10.5t13 27.5q0 14 -7 22t-19 8q-16 0 -27 -13l-37 21l31 83h51l-26 -65q13 10 29 10q24 0 40 -19t16 -48q0 -36 -26.5 -59t-66.5 -23q-46 0 -82 31z" />
    <glyph glyph-name="uni00B9" unicode="&#xb9;" horiz-adv-x="232" 
d="M111 727l-58 -60l-42 43l110 111h63v-400h-73v306z" />
    <glyph glyph-name="ordmasculine" unicode="&#xba;" horiz-adv-x="300" 
d="M59 600.5q32 47.5 91 47.5q60 0 91.5 -47.5t31.5 -117.5t-31.5 -117.5t-91.5 -47.5q-59 0 -91 47.5t-32 117.5t32 117.5zM189 561.5q-11 28.5 -39 28.5q-51 0 -51 -107q0 -108 51 -108q28 0 39 29t11 79t-11 78.5z" />
    <glyph glyph-name="guillemotright" unicode="&#xbb;" horiz-adv-x="359" 
d="M30 63l90 180l-90 177h75l90 -177l-90 -180h-75zM164 63l90 180l-90 177h75l90 -177l-90 -180h-75z" />
    <glyph glyph-name="onequarter" unicode="&#xbc;" horiz-adv-x="617" 
d="M146 0l276 667h47l-277 -667h-46zM568 0h-72v95h-145v58l129 247h88v-247h35v-58h-35v-95zM413 153h83v166zM111 573l-58 -60l-42 43l110 111h63v-400h-73v306z" />
    <glyph glyph-name="onehalf" unicode="&#xbd;" horiz-adv-x="651" 
d="M146 0l276 667h47l-277 -667h-46zM399 54q71 84 103 124.5t43.5 65t11.5 49.5q0 24 -14 39t-37 15q-21 0 -39.5 -13t-31.5 -36l-45 42q44 66 120 66q54 0 86.5 -29.5t32.5 -81.5q0 -29 -13 -58.5t-41 -68.5t-85 -109h141v-59h-232v54zM111 573l-58 -60l-42 43l110 111h63
v-400h-73v306z" />
    <glyph glyph-name="threequarters" unicode="&#xbe;" horiz-adv-x="653" 
d="M182 0l276 667h47l-277 -667h-46zM604 0h-72v95h-145v58l129 247h88v-247h35v-58h-35v-95zM449 153h83v166zM66 278q-32 18 -49 47l48 43q27 -49 71 -49q27 0 40.5 17t13.5 45q0 33 -17 47.5t-41 14.5q-22 0 -28 -1v59q5 -1 25 -1q26 0 41 14t15 42q0 58 -50 58
q-21 0 -38.5 -12t-29.5 -33l-46 40q19 31 50 47.5t68 16.5q53 0 85 -27.5t32 -80.5q0 -32 -19.5 -58.5t-47.5 -32.5q30 -5 51.5 -32.5t21.5 -64.5q0 -53 -33 -85t-90 -32q-41 0 -73 18z" />
    <glyph glyph-name="questiondown" unicode="&#xbf;" horiz-adv-x="280" 
d="M202.5 384q-19.5 -19 -45.5 -19t-45 19t-19 45t19 45t45 19t45.5 -19t19.5 -45t-19.5 -45zM206.5 135.5q-13.5 -28.5 -38.5 -61.5q-23 -31 -34.5 -54t-11.5 -54q0 -28 17.5 -50t45.5 -22q18 0 32 7.5t28 24.5l44 -66q-52 -56 -127 -56q-64 0 -103.5 40.5t-39.5 101.5
q0 44 15.5 76t46.5 73q27 35 39 59t12 54q0 14 -5 27t-12 22l79 32q26 -33 26 -86q0 -39 -13.5 -67.5z" />
    <glyph glyph-name="Agrave" unicode="&#xc0;" horiz-adv-x="398" 
d="M76 867h85l79 -144h-61zM265 136h-132l-23 -136h-107l136 667h120l136 -667h-107zM145 228h108l-54 320z" />
    <glyph glyph-name="Aacute" unicode="&#xc1;" horiz-adv-x="398" 
d="M158 723l79 144h85l-103 -144h-61zM265 136h-132l-23 -136h-107l136 667h120l136 -667h-107zM145 228h108l-54 320z" />
    <glyph glyph-name="Acircumflex" unicode="&#xc2;" horiz-adv-x="398" 
d="M198 821l-53 -98h-54l64 144h87l66 -144h-53zM265 136h-132l-23 -136h-107l136 667h120l136 -667h-107zM145 228h108l-54 320z" />
    <glyph glyph-name="Atilde" unicode="&#xc3;" horiz-adv-x="398" 
d="M167.5 797q-5.5 7 -12.5 7q-11 0 -19 -19.5t-8 -57.5h-50q0 59 21 96.5t59 37.5q21 0 34 -14t25 -38q8 -16 14.5 -23.5t13.5 -7.5q11 0 18.5 19.5t7.5 57.5h50q0 -60 -20.5 -97t-59.5 -37q-21 0 -33 13.5t-26 38.5q-9 17 -14.5 24zM265 136h-132l-23 -136h-107l136 667
h120l136 -667h-107zM145 228h108l-54 320z" />
    <glyph glyph-name="Adieresis" unicode="&#xc4;" horiz-adv-x="398" 
d="M84 735.5q-16 15.5 -16 37.5t16 38t38 16q23 0 38.5 -15.5t15.5 -38.5q0 -22 -16 -37.5t-38 -15.5t-38 15.5zM237.5 735.5q-15.5 15.5 -15.5 37.5t15.5 38t37.5 16q23 0 39 -16t16 -38t-16 -37.5t-39 -15.5q-22 0 -37.5 15.5zM265 136h-132l-23 -136h-107l136 667h120
l136 -667h-107zM145 228h108l-54 320z" />
    <glyph glyph-name="Aring" unicode="&#xc5;" horiz-adv-x="398" 
d="M138.5 840.5q25.5 25.5 60.5 25.5q36 0 61 -25.5t25 -60.5q0 -36 -25 -61.5t-61 -25.5q-35 0 -60.5 25.5t-25.5 61.5q0 35 25.5 60.5zM229.5 809.5q-12.5 12.5 -30.5 12.5q-17 0 -29.5 -12.5t-12.5 -29.5q0 -18 12.5 -30.5t29.5 -12.5q18 0 30.5 12.5t12.5 30.5
q0 17 -12.5 29.5zM265 136h-132l-23 -136h-107l136 667h120l136 -667h-107zM145 228h108l-54 320z" />
    <glyph glyph-name="AE" unicode="&#xc6;" horiz-adv-x="584" 
d="M275 136h-119l-41 -136h-106l221 667h318v-92h-168v-189h161v-92h-161v-202h168v-92h-273v136zM181 228h94v320z" />
    <glyph glyph-name="Ccedilla" unicode="&#xc7;" horiz-adv-x="412" 
d="M339.5 40q-31.5 -44 -90.5 -51l-16 -39q13 10 29 10q24 0 40 -19t16 -48q0 -36 -26.5 -59t-66.5 -23q-46 0 -82 31l20 41q32 -27 60 -27q18 0 31 10.5t13 27.5q0 14 -7 22t-19 8q-16 0 -27 -13l-37 21l22 59q-83 15 -123 107t-40 235q0 157 48 251t146 94q66 0 100.5 -40
t54.5 -105l-84 -31q-12 42 -28 62.5t-43 20.5q-46 0 -66.5 -67.5t-20.5 -184.5t20.5 -184.5t66.5 -67.5q31 0 47.5 26t24.5 73l85 -31q-16 -65 -47.5 -109z" />
    <glyph glyph-name="Egrave" unicode="&#xc8;" horiz-adv-x="367" 
d="M70 867h85l79 -144h-61zM57 667h273v-92h-169v-189h162v-92h-162v-202h169v-92h-273v667z" />
    <glyph glyph-name="Eacute" unicode="&#xc9;" horiz-adv-x="367" 
d="M152 723l79 144h85l-103 -144h-61zM57 667h273v-92h-169v-189h162v-92h-162v-202h169v-92h-273v667z" />
    <glyph glyph-name="Ecircumflex" unicode="&#xca;" horiz-adv-x="367" 
d="M193 821l-53 -98h-54l64 144h87l66 -144h-53zM57 667h273v-92h-169v-189h162v-92h-162v-202h169v-92h-273v667z" />
    <glyph glyph-name="Edieresis" unicode="&#xcb;" horiz-adv-x="367" 
d="M80 735.5q-16 15.5 -16 37.5t16 38t38 16q23 0 38.5 -15.5t15.5 -38.5q0 -22 -16 -37.5t-38 -15.5t-38 15.5zM233.5 735.5q-15.5 15.5 -15.5 37.5t15.5 38t37.5 16q23 0 39 -16t16 -38t-16 -37.5t-39 -15.5q-22 0 -37.5 15.5zM57 667h273v-92h-169v-189h162v-92h-162
v-202h169v-92h-273v667z" />
    <glyph glyph-name="Igrave" unicode="&#xcc;" horiz-adv-x="218" 
d="M-14 867h85l79 -144h-61zM57 667h104v-667h-104v667z" />
    <glyph glyph-name="Iacute" unicode="&#xcd;" horiz-adv-x="218" 
d="M68 723l79 144h85l-103 -144h-61zM57 667h104v-667h-104v667z" />
    <glyph glyph-name="Icircumflex" unicode="&#xce;" horiz-adv-x="218" 
d="M108 821l-53 -98h-54l64 144h87l66 -144h-53zM57 667h104v-667h-104v667z" />
    <glyph glyph-name="Idieresis" unicode="&#xcf;" horiz-adv-x="218" 
d="M-4 735.5q-16 15.5 -16 37.5t16 38t38 16q23 0 38.5 -15.5t15.5 -38.5q0 -22 -16 -37.5t-38 -15.5t-38 15.5zM149.5 735.5q-15.5 15.5 -15.5 37.5t15.5 38t37.5 16q23 0 39 -16t16 -38t-16 -37.5t-39 -15.5q-22 0 -37.5 15.5zM57 667h104v-667h-104v667z" />
    <glyph glyph-name="Eth" unicode="&#xd0;" horiz-adv-x="476" 
d="M387.5 576q52.5 -91 52.5 -243q0 -153 -52 -243t-160 -90h-150v291h-60v76h60v300h149q108 0 160.5 -91zM307 155q26 63 26 178q0 116 -26 179t-80 63h-45v-208h74v-76h-74v-199h45q54 0 80 63z" />
    <glyph glyph-name="Ntilde" unicode="&#xd1;" horiz-adv-x="463" 
d="M197.5 797q-5.5 7 -12.5 7q-11 0 -19 -19.5t-8 -57.5h-50q0 59 21 96.5t59 37.5q21 0 34 -14t25 -38q8 -16 14.5 -23.5t13.5 -7.5q11 0 18.5 19.5t7.5 57.5h50q0 -60 -20.5 -97t-59.5 -37q-21 0 -33 13.5t-26 38.5q-9 17 -14.5 24zM161 386v-386h-104v667h104l141 -375
v375h105v-667h-99z" />
    <glyph glyph-name="Ograve" unicode="&#xd2;" horiz-adv-x="459" 
d="M106 867h85l79 -144h-61zM83.5 583q47.5 95 145.5 95t146 -95t48 -250t-48 -250t-146 -95t-145.5 94.5t-47.5 250.5q0 155 47.5 250zM295.5 516.5q-20.5 68.5 -66.5 68.5q-45 0 -65.5 -68.5t-20.5 -183.5q0 -114 20.5 -183t65.5 -69q46 0 66.5 69t20.5 183
q0 115 -20.5 183.5z" />
    <glyph glyph-name="Oacute" unicode="&#xd3;" horiz-adv-x="459" 
d="M188 723l79 144h85l-103 -144h-61zM83.5 583q47.5 95 145.5 95t146 -95t48 -250t-48 -250t-146 -95t-145.5 94.5t-47.5 250.5q0 155 47.5 250zM295.5 516.5q-20.5 68.5 -66.5 68.5q-45 0 -65.5 -68.5t-20.5 -183.5q0 -114 20.5 -183t65.5 -69q46 0 66.5 69t20.5 183
q0 115 -20.5 183.5z" />
    <glyph glyph-name="Ocircumflex" unicode="&#xd4;" horiz-adv-x="459" 
d="M229 821l-53 -98h-54l64 144h87l66 -144h-53zM83.5 583q47.5 95 145.5 95t146 -95t48 -250t-48 -250t-146 -95t-145.5 94.5t-47.5 250.5q0 155 47.5 250zM295.5 516.5q-20.5 68.5 -66.5 68.5q-45 0 -65.5 -68.5t-20.5 -183.5q0 -114 20.5 -183t65.5 -69q46 0 66.5 69
t20.5 183q0 115 -20.5 183.5z" />
    <glyph glyph-name="Otilde" unicode="&#xd5;" horiz-adv-x="459" 
d="M198.5 797q-5.5 7 -12.5 7q-11 0 -19 -19.5t-8 -57.5h-50q0 59 21 96.5t59 37.5q21 0 34 -14t25 -38q8 -16 14.5 -23.5t13.5 -7.5q11 0 18.5 19.5t7.5 57.5h50q0 -60 -20.5 -97t-59.5 -37q-21 0 -33 13.5t-26 38.5q-9 17 -14.5 24zM83.5 583q47.5 95 145.5 95t146 -95
t48 -250t-48 -250t-146 -95t-145.5 94.5t-47.5 250.5q0 155 47.5 250zM295.5 516.5q-20.5 68.5 -66.5 68.5q-45 0 -65.5 -68.5t-20.5 -183.5q0 -114 20.5 -183t65.5 -69q46 0 66.5 69t20.5 183q0 115 -20.5 183.5z" />
    <glyph glyph-name="Odieresis" unicode="&#xd6;" horiz-adv-x="459" 
d="M115 735.5q-16 15.5 -16 37.5t16 38t38 16q23 0 38.5 -15.5t15.5 -38.5q0 -22 -16 -37.5t-38 -15.5t-38 15.5zM268.5 735.5q-15.5 15.5 -15.5 37.5t15.5 38t37.5 16q23 0 39 -16t16 -38t-16 -37.5t-39 -15.5q-22 0 -37.5 15.5zM83.5 583q47.5 95 145.5 95t146 -95
t48 -250t-48 -250t-146 -95t-145.5 94.5t-47.5 250.5q0 155 47.5 250zM295.5 516.5q-20.5 68.5 -66.5 68.5q-45 0 -65.5 -68.5t-20.5 -183.5q0 -114 20.5 -183t65.5 -69q46 0 66.5 69t20.5 183q0 115 -20.5 183.5z" />
    <glyph glyph-name="multiply" unicode="&#xd7;" horiz-adv-x="381" 
d="M87 187l-44 44l104 103l-104 103l44 44l103 -103l104 103l44 -44l-104 -103l104 -103l-44 -44l-104 103z" />
    <glyph glyph-name="Oslash" unicode="&#xd8;" horiz-adv-x="459" 
d="M423 333q0 -155 -48 -250t-146 -95q-63 0 -105 40l-13 -28h-64l37 82q-48 90 -48 251q0 155 47.5 250t145.5 95q62 0 106 -41l14 30h64l-38 -84q48 -90 48 -250zM149 224l140 310q-22 51 -60 51q-45 0 -65.5 -68.5t-20.5 -183.5q0 -59 6 -109zM295.5 150
q20.5 69 20.5 183q0 53 -5 108l-141 -310q23 -50 59 -50q46 0 66.5 69z" />
    <glyph glyph-name="Ugrave" unicode="&#xd9;" horiz-adv-x="464" 
d="M109 867h85l79 -144h-61zM57 667h104v-488q0 -99 71 -99t71 99v488h104v-483q0 -97 -49.5 -146.5t-125.5 -49.5t-125.5 49.5t-49.5 146.5v483z" />
    <glyph glyph-name="Uacute" unicode="&#xda;" horiz-adv-x="464" 
d="M191 723l79 144h85l-103 -144h-61zM57 667h104v-488q0 -99 71 -99t71 99v488h104v-483q0 -97 -49.5 -146.5t-125.5 -49.5t-125.5 49.5t-49.5 146.5v483z" />
    <glyph glyph-name="Ucircumflex" unicode="&#xdb;" horiz-adv-x="464" 
d="M231 821l-53 -98h-54l64 144h87l66 -144h-53zM57 667h104v-488q0 -99 71 -99t71 99v488h104v-483q0 -97 -49.5 -146.5t-125.5 -49.5t-125.5 49.5t-49.5 146.5v483z" />
    <glyph glyph-name="Udieresis" unicode="&#xdc;" horiz-adv-x="464" 
d="M117 735.5q-16 15.5 -16 37.5t16 38t38 16q23 0 38.5 -15.5t15.5 -38.5q0 -22 -16 -37.5t-38 -15.5t-38 15.5zM270.5 735.5q-15.5 15.5 -15.5 37.5t15.5 38t37.5 16q23 0 39 -16t16 -38t-16 -37.5t-39 -15.5q-22 0 -37.5 15.5zM57 667h104v-488q0 -99 71 -99t71 99v488
h104v-483q0 -97 -49.5 -146.5t-125.5 -49.5t-125.5 49.5t-49.5 146.5v483z" />
    <glyph glyph-name="Yacute" unicode="&#xdd;" horiz-adv-x="405" 
d="M162 723l79 144h85l-103 -144h-61zM151 279l-154 388h112l94 -285l95 285h110l-153 -388v-279h-104v279z" />
    <glyph glyph-name="Thorn" unicode="&#xde;" horiz-adv-x="418" 
d="M57 667h104v-115h57q87 0 131.5 -59t44.5 -148q0 -88 -44.5 -146.5t-131.5 -58.5h-57v-140h-104v667zM266.5 428.5q-20.5 31.5 -58.5 31.5h-47v-228h47q38 0 58.5 30.5t20.5 82.5t-20.5 83.5z" />
    <glyph glyph-name="germandbls" unicode="&#xdf;" horiz-adv-x="489" 
d="M254.5 3.5q-32.5 15.5 -59.5 46.5l36 66q40 -52 85 -52q25 0 42.5 16.5t17.5 43.5t-16.5 44.5t-53.5 42.5q-33 21 -52.5 38t-33.5 44t-14 65q0 32 13.5 53.5t39.5 47.5q22 22 32.5 37t10.5 36q0 26 -20.5 44t-51.5 18q-35 0 -57 -23t-22 -69v-502h-93v502q0 50 21 89.5
t60 62.5t91 23q45 0 83 -18t60.5 -49t22.5 -68q0 -40 -15.5 -65t-45.5 -52q-19 -18 -28 -30.5t-9 -28.5q0 -24 16.5 -40.5t51.5 -37.5t56.5 -39t37 -48.5t15.5 -74.5q0 -36 -18 -68t-50.5 -51t-73.5 -19q-46 0 -78.5 15.5z" />
    <glyph glyph-name="agrave" unicode="&#xe0;" horiz-adv-x="398" 
d="M254 45q-16 -27 -43.5 -42t-54.5 -15q-57 0 -92.5 44t-35.5 117q0 72 35.5 115t92.5 43q27 0 55 -14t43 -40v67q0 95 -74 95q-51 0 -97 -49l-36 66q29 32 70.5 47.5t80.5 15.5q73 0 111.5 -38.5t38.5 -116.5v-340h-94v45zM254 183q-11 26 -29 42t-38 16
q-32 0 -48.5 -26.5t-16.5 -67.5t16.5 -67.5t48.5 -26.5q20 0 38 15.5t29 41.5v73zM75 700h85l79 -144h-61z" />
    <glyph glyph-name="aacute" unicode="&#xe1;" horiz-adv-x="398" 
d="M254 45q-16 -27 -43.5 -42t-54.5 -15q-57 0 -92.5 44t-35.5 117q0 72 35.5 115t92.5 43q27 0 55 -14t43 -40v67q0 95 -74 95q-51 0 -97 -49l-36 66q29 32 70.5 47.5t80.5 15.5q73 0 111.5 -38.5t38.5 -116.5v-340h-94v45zM254 183q-11 26 -29 42t-38 16
q-32 0 -48.5 -26.5t-16.5 -67.5t16.5 -67.5t48.5 -26.5q20 0 38 15.5t29 41.5v73zM157 556l79 144h85l-103 -144h-61z" />
    <glyph glyph-name="acircumflex" unicode="&#xe2;" horiz-adv-x="398" 
d="M254 45q-16 -27 -43.5 -42t-54.5 -15q-57 0 -92.5 44t-35.5 117q0 72 35.5 115t92.5 43q27 0 55 -14t43 -40v67q0 95 -74 95q-51 0 -97 -49l-36 66q29 32 70.5 47.5t80.5 15.5q73 0 111.5 -38.5t38.5 -116.5v-340h-94v45zM254 183q-11 26 -29 42t-38 16
q-32 0 -48.5 -26.5t-16.5 -67.5t16.5 -67.5t48.5 -26.5q20 0 38 15.5t29 41.5v73zM200 654l-53 -98h-54l64 144h87l66 -144h-53z" />
    <glyph glyph-name="atilde" unicode="&#xe3;" horiz-adv-x="398" 
d="M254 45q-16 -27 -43.5 -42t-54.5 -15q-57 0 -92.5 44t-35.5 117q0 72 35.5 115t92.5 43q27 0 55 -14t43 -40v67q0 95 -74 95q-51 0 -97 -49l-36 66q29 32 70.5 47.5t80.5 15.5q73 0 111.5 -38.5t38.5 -116.5v-340h-94v45zM254 183q-11 26 -29 42t-38 16
q-32 0 -48.5 -26.5t-16.5 -67.5t16.5 -67.5t48.5 -26.5q20 0 38 15.5t29 41.5v73zM167.5 630q-5.5 7 -12.5 7q-11 0 -19 -19.5t-8 -57.5h-50q0 59 21 96.5t59 37.5q21 0 34 -14t25 -38q8 -16 14.5 -23.5t13.5 -7.5q11 0 18.5 19.5t7.5 57.5h50q0 -60 -20.5 -97t-59.5 -37
q-21 0 -33 13.5t-26 38.5q-9 17 -14.5 24z" />
    <glyph glyph-name="adieresis" unicode="&#xe4;" horiz-adv-x="398" 
d="M254 45q-16 -27 -43.5 -42t-54.5 -15q-57 0 -92.5 44t-35.5 117q0 72 35.5 115t92.5 43q27 0 55 -14t43 -40v67q0 95 -74 95q-51 0 -97 -49l-36 66q29 32 70.5 47.5t80.5 15.5q73 0 111.5 -38.5t38.5 -116.5v-340h-94v45zM254 183q-11 26 -29 42t-38 16
q-32 0 -48.5 -26.5t-16.5 -67.5t16.5 -67.5t48.5 -26.5q20 0 38 15.5t29 41.5v73zM85 568.5q-16 15.5 -16 37.5t16 38t38 16q23 0 38.5 -15.5t15.5 -38.5q0 -22 -16 -37.5t-38 -15.5t-38 15.5zM238.5 568.5q-15.5 15.5 -15.5 37.5t15.5 38t37.5 16q23 0 39 -16t16 -38
t-16 -37.5t-39 -15.5q-22 0 -37.5 15.5z" />
    <glyph glyph-name="aring" unicode="&#xe5;" horiz-adv-x="398" 
d="M254 45q-16 -27 -43.5 -42t-54.5 -15q-57 0 -92.5 44t-35.5 117q0 72 35.5 115t92.5 43q27 0 55 -14t43 -40v67q0 95 -74 95q-51 0 -97 -49l-36 66q29 32 70.5 47.5t80.5 15.5q73 0 111.5 -38.5t38.5 -116.5v-340h-94v45zM254 183q-11 26 -29 42t-38 16
q-32 0 -48.5 -26.5t-16.5 -67.5t16.5 -67.5t48.5 -26.5q20 0 38 15.5t29 41.5v73zM138.5 687.5q25.5 25.5 60.5 25.5q36 0 61 -25.5t25 -60.5q0 -36 -25 -61.5t-61 -25.5q-35 0 -60.5 25.5t-25.5 61.5q0 35 25.5 60.5zM229.5 656.5q-12.5 12.5 -30.5 12.5q-17 0 -29.5 -12.5
t-12.5 -29.5q0 -18 12.5 -30.5t29.5 -12.5q18 0 30.5 12.5t12.5 30.5q0 17 -12.5 29.5z" />
    <glyph glyph-name="ae" unicode="&#xe6;" horiz-adv-x="611" 
d="M374 104.5q24 -39.5 71 -39.5q21 0 41.5 14t36.5 38l48 -51q-26 -37 -61.5 -57.5t-75.5 -20.5q-48 0 -76 19t-52 58q-21 -33 -55 -55t-81 -22q-68 0 -105 42t-37 116q0 73 35.5 117t94.5 44q28 0 56.5 -14t44.5 -40v67q0 95 -76 95q-52 0 -100 -49l-36 66
q29 32 69.5 47.5t75.5 15.5q44 0 73.5 -22.5t40.5 -54.5q18 34 45 55.5t73 21.5q80 0 120 -70.5t40 -182.5v-31h-235q1 -67 25 -106.5zM477 377q-16 41 -55 41q-40 0 -56.5 -42.5t-16.5 -97.5h144q0 58 -16 99zM229 225q-19 16 -40 16q-30 0 -48.5 -25t-18.5 -65
q0 -43 18 -66.5t49 -23.5q30 0 50 28.5t20 68.5v25q-11 26 -30 42z" />
    <glyph glyph-name="ccedilla" unicode="&#xe7;" horiz-adv-x="333" 
d="M251.5 79q14.5 8 29.5 25l33 -72q-29 -36 -87 -43l-16 -41q13 10 29 10q24 0 40 -19t16 -48q0 -36 -26.5 -59t-66.5 -23q-46 0 -82 31l20 41q32 -27 60 -27q18 0 31 10.5t13 27.5q0 14 -7 22t-19 8q-16 0 -27 -13l-37 21l23 60q-69 13 -108 81.5t-39 170.5
q0 112 46.5 182.5t127.5 70.5q69 0 109 -44l-33 -72q-15 17 -29.5 25t-31.5 8q-45 0 -68.5 -48.5t-23.5 -121.5t23.5 -122t68.5 -49q17 0 31.5 8z" />
    <glyph glyph-name="egrave" unicode="&#xe8;" horiz-adv-x="391" 
d="M74.5 424q43.5 71 126.5 71t123 -69.5t40 -181.5v-33h-241q1 -66 26 -106t73 -40q21 0 42.5 13.5t37.5 38.5l49 -51q-26 -37 -62 -57.5t-76 -20.5q-88 0 -135 70t-47 184q0 111 43.5 182zM140.5 375.5q-17.5 -42.5 -17.5 -97.5h149q0 58 -16.5 99t-57.5 41
q-40 0 -57.5 -42.5zM78 700h85l79 -144h-61z" />
    <glyph glyph-name="eacute" unicode="&#xe9;" horiz-adv-x="391" 
d="M74.5 424q43.5 71 126.5 71t123 -69.5t40 -181.5v-33h-241q1 -66 26 -106t73 -40q21 0 42.5 13.5t37.5 38.5l49 -51q-26 -37 -62 -57.5t-76 -20.5q-88 0 -135 70t-47 184q0 111 43.5 182zM140.5 375.5q-17.5 -42.5 -17.5 -97.5h149q0 58 -16.5 99t-57.5 41
q-40 0 -57.5 -42.5zM160 556l79 144h85l-103 -144h-61z" />
    <glyph glyph-name="ecircumflex" unicode="&#xea;" horiz-adv-x="391" 
d="M74.5 424q43.5 71 126.5 71t123 -69.5t40 -181.5v-33h-241q1 -66 26 -106t73 -40q21 0 42.5 13.5t37.5 38.5l49 -51q-26 -37 -62 -57.5t-76 -20.5q-88 0 -135 70t-47 184q0 111 43.5 182zM140.5 375.5q-17.5 -42.5 -17.5 -97.5h149q0 58 -16.5 99t-57.5 41
q-40 0 -57.5 -42.5zM200 654l-53 -98h-54l64 144h87l66 -144h-53z" />
    <glyph glyph-name="edieresis" unicode="&#xeb;" horiz-adv-x="391" 
d="M74.5 424q43.5 71 126.5 71t123 -69.5t40 -181.5v-33h-241q1 -66 26 -106t73 -40q21 0 42.5 13.5t37.5 38.5l49 -51q-26 -37 -62 -57.5t-76 -20.5q-88 0 -135 70t-47 184q0 111 43.5 182zM140.5 375.5q-17.5 -42.5 -17.5 -97.5h149q0 58 -16.5 99t-57.5 41
q-40 0 -57.5 -42.5zM86 568.5q-16 15.5 -16 37.5t16 38t38 16q23 0 38.5 -15.5t15.5 -38.5q0 -22 -16 -37.5t-38 -15.5t-38 15.5zM239.5 568.5q-15.5 15.5 -15.5 37.5t15.5 38t37.5 16q23 0 39 -16t16 -38t-16 -37.5t-39 -15.5q-22 0 -37.5 15.5z" />
    <glyph glyph-name="igrave" unicode="&#xec;" horiz-adv-x="194" 
d="M-26 700h85l79 -144h-61zM50 483h94v-483h-94v483z" />
    <glyph glyph-name="iacute" unicode="&#xed;" horiz-adv-x="194" 
d="M56 556l79 144h85l-103 -144h-61zM50 483h94v-483h-94v483z" />
    <glyph glyph-name="icircumflex" unicode="&#xee;" horiz-adv-x="194" 
d="M96 654l-53 -98h-54l64 144h87l66 -144h-53zM50 483h94v-483h-94v483z" />
    <glyph glyph-name="idieresis" unicode="&#xef;" horiz-adv-x="194" 
d="M-18 568.5q-16 15.5 -16 37.5t16 38t38 16q23 0 38.5 -15.5t15.5 -38.5q0 -22 -16 -37.5t-38 -15.5t-38 15.5zM135.5 568.5q-15.5 15.5 -15.5 37.5t15.5 38t37.5 16q23 0 39 -16t16 -38t-16 -37.5t-39 -15.5q-22 0 -37.5 15.5zM50 483h94v-483h-94v483z" />
    <glyph glyph-name="eth" unicode="&#xf0;" 
d="M307 584q63 -154 63 -320q0 -127 -41.5 -201.5t-127.5 -74.5q-85 0 -127.5 69.5t-42.5 173.5q0 102 37.5 171.5t107.5 69.5q60 0 89 -65q-12 67 -42 140l-95 -43l-21 47l96 42q-14 31 -35 64l83 39q21 -34 35 -66l67 30l20 -46zM256.5 116q16.5 45 16.5 115
q0 69 -16.5 113.5t-55.5 44.5t-55.5 -44.5t-16.5 -113.5q0 -70 16.5 -115t55.5 -45t55.5 45z" />
    <glyph glyph-name="ntilde" unicode="&#xf1;" 
d="M258 356q0 56 -41 56q-23 0 -42.5 -20.5t-30.5 -49.5v-342h-94v483h94v-65q16 31 47.5 54t63.5 23q97 0 97 -108v-387h-94v356zM170.5 630q-5.5 7 -12.5 7q-11 0 -19 -19.5t-8 -57.5h-50q0 59 21 96.5t59 37.5q21 0 34 -14t25 -38q8 -16 14.5 -23.5t13.5 -7.5
q11 0 18.5 19.5t7.5 57.5h50q0 -60 -20.5 -97t-59.5 -37q-21 0 -33 13.5t-26 38.5q-9 17 -14.5 24z" />
    <glyph glyph-name="ograve" unicode="&#xf2;" 
d="M73.5 60.5q-42.5 72.5 -42.5 181.5t42.5 181t127.5 72t127 -72t42 -181t-42 -181.5t-127 -72.5t-127.5 72.5zM273 242q0 170 -72 170t-72 -170q0 -171 72 -171t72 171zM78 700h85l79 -144h-61z" />
    <glyph glyph-name="oacute" unicode="&#xf3;" 
d="M73.5 60.5q-42.5 72.5 -42.5 181.5t42.5 181t127.5 72t127 -72t42 -181t-42 -181.5t-127 -72.5t-127.5 72.5zM273 242q0 170 -72 170t-72 -170q0 -171 72 -171t72 171zM160 556l79 144h85l-103 -144h-61z" />
    <glyph glyph-name="ocircumflex" unicode="&#xf4;" 
d="M73.5 60.5q-42.5 72.5 -42.5 181.5t42.5 181t127.5 72t127 -72t42 -181t-42 -181.5t-127 -72.5t-127.5 72.5zM273 242q0 170 -72 170t-72 -170q0 -171 72 -171t72 171zM200 654l-53 -98h-54l64 144h87l66 -144h-53z" />
    <glyph glyph-name="otilde" unicode="&#xf5;" 
d="M73.5 60.5q-42.5 72.5 -42.5 181.5t42.5 181t127.5 72t127 -72t42 -181t-42 -181.5t-127 -72.5t-127.5 72.5zM273 242q0 170 -72 170t-72 -170q0 -171 72 -171t72 171zM169.5 630q-5.5 7 -12.5 7q-11 0 -19 -19.5t-8 -57.5h-50q0 59 21 96.5t59 37.5q21 0 34 -14t25 -38
q8 -16 14.5 -23.5t13.5 -7.5q11 0 18.5 19.5t7.5 57.5h50q0 -60 -20.5 -97t-59.5 -37q-21 0 -33 13.5t-26 38.5q-9 17 -14.5 24z" />
    <glyph glyph-name="odieresis" unicode="&#xf6;" 
d="M73.5 60.5q-42.5 72.5 -42.5 181.5t42.5 181t127.5 72t127 -72t42 -181t-42 -181.5t-127 -72.5t-127.5 72.5zM273 242q0 170 -72 170t-72 -170q0 -171 72 -171t72 171zM86 568.5q-16 15.5 -16 37.5t16 38t38 16q23 0 38.5 -15.5t15.5 -38.5q0 -22 -16 -37.5t-38 -15.5
t-38 15.5zM239.5 568.5q-15.5 15.5 -15.5 37.5t15.5 38t37.5 16q23 0 39 -16t16 -38t-16 -37.5t-39 -15.5q-22 0 -37.5 15.5z" />
    <glyph glyph-name="divide" unicode="&#xf7;" horiz-adv-x="374" 
d="M152 443.5q-15 15.5 -15 36.5t15 36t36 15t36 -15t15 -36t-15 -36.5t-36 -15.5t-36 15.5zM29 368h316v-62h-316v62zM152 155q-15 15 -15 36t15 36.5t36 15.5t36 -15.5t15 -36.5t-15 -36t-36 -15t-36 15z" />
    <glyph glyph-name="oslash" unicode="&#xf8;" 
d="M359.5 341q10.5 -46 10.5 -99q0 -109 -42 -181.5t-127 -72.5q-55 0 -95 34l-12 -22h-55l34 61q-42 70 -42 181q0 109 42.5 181t127.5 72q55 0 95 -34l12 22h55l-34 -62q20 -34 30.5 -80zM133 169l117 210q-17 33 -49 33q-72 0 -72 -170q0 -42 4 -73zM273 242q0 41 -4 72
l-117 -210q17 -33 49 -33q72 0 72 171z" />
    <glyph glyph-name="ugrave" unicode="&#xf9;" 
d="M258 63q-16 -31 -46.5 -53t-64.5 -22q-51 0 -74 26.5t-23 80.5v388h94v-357q0 -55 41 -55q23 0 43 20t30 48v344h94v-483h-94v63zM78 700h85l79 -144h-61z" />
    <glyph glyph-name="uacute" unicode="&#xfa;" 
d="M258 63q-16 -31 -46.5 -53t-64.5 -22q-51 0 -74 26.5t-23 80.5v388h94v-357q0 -55 41 -55q23 0 43 20t30 48v344h94v-483h-94v63zM160 556l79 144h85l-103 -144h-61z" />
    <glyph glyph-name="ucircumflex" unicode="&#xfb;" 
d="M258 63q-16 -31 -46.5 -53t-64.5 -22q-51 0 -74 26.5t-23 80.5v388h94v-357q0 -55 41 -55q23 0 43 20t30 48v344h94v-483h-94v63zM200 654l-53 -98h-54l64 144h87l66 -144h-53z" />
    <glyph glyph-name="udieresis" unicode="&#xfc;" 
d="M258 63q-16 -31 -46.5 -53t-64.5 -22q-51 0 -74 26.5t-23 80.5v388h94v-357q0 -55 41 -55q23 0 43 20t30 48v344h94v-483h-94v63zM87 568.5q-16 15.5 -16 37.5t16 38t38 16q23 0 38.5 -15.5t15.5 -38.5q0 -22 -16 -37.5t-38 -15.5t-38 15.5zM240.5 568.5
q-15.5 15.5 -15.5 37.5t15.5 38t37.5 16q23 0 39 -16t16 -38t-16 -37.5t-39 -15.5q-22 0 -37.5 15.5z" />
    <glyph glyph-name="yacute" unicode="&#xfd;" horiz-adv-x="357" 
d="M74 -113q16 0 25.5 9t15.5 30l16 61l-126 496h100l73 -364l75 364h99l-148 -577q-16 -58 -43 -80t-75 -22q-13 0 -27.5 2t-21.5 5l14 82q10 -6 23 -6zM137 556l79 144h85l-103 -144h-61z" />
    <glyph glyph-name="thorn" unicode="&#xfe;" horiz-adv-x="406" 
d="M144 -184h-94v851h94v-243q15 35 39.5 53t53.5 18q68 0 103 -68t35 -185q0 -116 -35 -185t-103 -69q-29 0 -54 17.5t-39 54.5v-244zM208 412q-20 0 -38 -19.5t-26 -47.5v-206q9 -28 26.5 -48t37.5 -20q70 0 70 171q0 170 -70 170z" />
    <glyph glyph-name="ydieresis" unicode="&#xff;" horiz-adv-x="357" 
d="M74 -113q16 0 25.5 9t15.5 30l16 61l-126 496h100l73 -364l75 364h99l-148 -577q-16 -58 -43 -80t-75 -22q-13 0 -27.5 2t-21.5 5l14 82q10 -6 23 -6zM68 568.5q-16 15.5 -16 37.5t16 38t38 16q23 0 38.5 -15.5t15.5 -38.5q0 -22 -16 -37.5t-38 -15.5t-38 15.5z
M221.5 568.5q-15.5 15.5 -15.5 37.5t15.5 38t37.5 16q23 0 39 -16t16 -38t-16 -37.5t-39 -15.5q-22 0 -37.5 15.5z" />
    <glyph glyph-name="dotlessi" unicode="&#x131;" horiz-adv-x="194" 
d="M50 483h94v-483h-94v483z" />
    <glyph glyph-name="OE" unicode="&#x152;" horiz-adv-x="616" 
d="M307 57q-16 -36 -43 -52.5t-54 -16.5q-90 0 -132 94.5t-42 250.5t42 250t132 94q27 0 54 -15.5t43 -51.5v57h273v-92h-168v-189h161v-92h-161v-202h168v-92h-273v57zM276.5 557q-20.5 27 -46.5 27q-87 0 -87 -251q0 -252 87 -252q26 0 46 27t31 77v296q-10 49 -30.5 76z
" />
    <glyph glyph-name="oe" unicode="&#x153;" horiz-adv-x="632" 
d="M390.5 104.5q24.5 -39.5 72.5 -39.5q22 0 43 13.5t37 38.5l49 -51q-26 -37 -61.5 -57.5t-75.5 -20.5q-49 0 -80.5 24.5t-51.5 73.5q-40 -98 -122 -98q-85 0 -127.5 72.5t-42.5 181.5t42.5 181t127.5 72q82 0 121 -95q38 95 120 95q83 0 123 -70t40 -183v-31h-240
q1 -67 25.5 -106.5zM497.5 377q-16.5 41 -57.5 41q-40 0 -57.5 -42.5t-17.5 -97.5h149q0 58 -16.5 99zM129 242q0 -171 72 -171t72 171q0 170 -72 170t-72 -170z" />
    <glyph glyph-name="Scaron" unicode="&#x160;" horiz-adv-x="378" 
d="M97 867h54l56 -98l54 98h53l-63 -144h-87zM63 134q19 -25 48 -39t58 -14q33 0 54 24t21 62q0 40 -21.5 67t-67.5 63q-39 31 -63 55t-41 61t-17 88q0 49 21 89.5t60 64t91 23.5q39 0 74 -13t60 -38l-42 -80q-37 38 -89 38q-30 0 -49.5 -22t-19.5 -57q0 -34 20.5 -59
t63.5 -59q39 -31 64.5 -57.5t43.5 -65.5t18 -92t-21.5 -95t-61.5 -66t-92 -24q-100 0 -159 64z" />
    <glyph glyph-name="scaron" unicode="&#x161;" horiz-adv-x="330" 
d="M57 115q20 -24 45 -38t52 -14q28 0 46.5 16.5t18.5 43.5q0 26 -17.5 43t-55.5 39q-37 22 -59 39.5t-38.5 47t-16.5 73.5q0 56 38.5 93t104.5 37q38 0 71.5 -14.5t58.5 -41.5l-40 -63q-15 20 -38.5 32t-49.5 12q-25 0 -41 -15t-16 -37q0 -24 17 -40t53 -37
q37 -21 60.5 -39.5t40.5 -49.5t17 -76q0 -61 -41.5 -99.5t-104.5 -38.5q-97 0 -146 62zM61 700h54l56 -98l54 98h53l-63 -144h-87z" />
    <glyph glyph-name="Ydieresis" unicode="&#x178;" horiz-adv-x="405" 
d="M90 735.5q-16 15.5 -16 37.5t16 38t38 16q23 0 38.5 -15.5t15.5 -38.5q0 -22 -16 -37.5t-38 -15.5t-38 15.5zM243.5 735.5q-15.5 15.5 -15.5 37.5t15.5 38t37.5 16q23 0 39 -16t16 -38t-16 -37.5t-39 -15.5q-22 0 -37.5 15.5zM151 279l-154 388h112l94 -285l95 285h110
l-153 -388v-279h-104v279z" />
    <glyph glyph-name="Zcaron" unicode="&#x17d;" horiz-adv-x="360" 
d="M72 867h54l56 -98l54 98h53l-63 -144h-87zM31 89l175 486h-175v92h292v-85l-178 -490h185v-92h-299v89z" />
    <glyph glyph-name="zcaron" unicode="&#x17e;" horiz-adv-x="321" 
d="M30 72l146 329h-146v82h257v-69l-146 -332h150v-82h-261v72zM50 700h54l56 -98l54 98h53l-63 -144h-87z" />
    <glyph glyph-name="florin" unicode="&#x192;" horiz-adv-x="383" 
d="M107 248h-44v84h63l50 225q11 53 51.5 86.5t91.5 33.5q49 0 74 -24l-33 -81q-10 13 -30 13t-34 -14t-19 -39l-44 -200h83v-84h-102l-91 -409h-106z" />
    <glyph glyph-name="uni0237" unicode="&#x237;" horiz-adv-x="194" 
d="M3 -108q6 -2 14 -2q33 0 33 45v548h94v-549q0 -130 -110 -130q-24 0 -44 7z" />
    <glyph glyph-name="circumflex" unicode="&#x2c6;" horiz-adv-x="217" 
d="M107 654l-53 -98h-54l64 144h87l66 -144h-53z" />
    <glyph glyph-name="caron" unicode="&#x2c7;" horiz-adv-x="217" 
d="M0 700h54l56 -98l54 98h53l-63 -144h-87z" />
    <glyph glyph-name="ring" unicode="&#x2da;" horiz-adv-x="172" 
d="M25.5 687.5q25.5 25.5 60.5 25.5q36 0 61 -25.5t25 -60.5q0 -36 -25 -61.5t-61 -25.5q-35 0 -60.5 25.5t-25.5 61.5q0 35 25.5 60.5zM116.5 656.5q-12.5 12.5 -30.5 12.5q-17 0 -29.5 -12.5t-12.5 -29.5q0 -18 12.5 -30.5t29.5 -12.5q18 0 30.5 12.5t12.5 30.5
q0 17 -12.5 29.5z" />
    <glyph glyph-name="tilde" unicode="&#x2dc;" horiz-adv-x="243" 
d="M89.5 630q-5.5 7 -12.5 7q-11 0 -19 -19.5t-8 -57.5h-50q0 59 21 96.5t59 37.5q21 0 34 -14t25 -38q8 -16 14.5 -23.5t13.5 -7.5q11 0 18.5 19.5t7.5 57.5h50q0 -60 -20.5 -97t-59.5 -37q-21 0 -33 13.5t-26 38.5q-9 17 -14.5 24z" />
    <glyph glyph-name="endash" unicode="&#x2013;" horiz-adv-x="460" 
d="M30 282h400v-81h-400v81z" />
    <glyph glyph-name="emdash" unicode="&#x2014;" horiz-adv-x="640" 
d="M30 282h580v-81h-580v81z" />
    <glyph glyph-name="quoteleft" unicode="&#x2018;" horiz-adv-x="241" 
d="M184 642q-25 -15 -45.5 -42t-24.5 -52q9 3 16 3q23 0 39 -17t16 -42q0 -26 -18.5 -44.5t-44.5 -18.5q-30 0 -50.5 23t-20.5 63q0 48 24.5 91t64.5 71z" />
    <glyph glyph-name="quoteright" unicode="&#x2019;" horiz-adv-x="241" 
d="M57 464q25 15 45 42t24 52q-6 -3 -15 -3q-24 0 -40 17t-16 42q0 26 18.5 44.5t44.5 18.5q30 0 50.5 -23t20.5 -63q0 -48 -24.5 -91t-64.5 -71z" />
    <glyph glyph-name="quotesinglbase" unicode="&#x201a;" horiz-adv-x="239" 
d="M57 -95q25 15 45 42t24 52q-4 -2 -15 -2q-24 0 -40 16.5t-16 41.5q0 26 18.5 44.5t44.5 18.5q30 0 50.5 -23t20.5 -63q0 -48 -24.5 -91t-64.5 -71z" />
    <glyph glyph-name="quotedblleft" unicode="&#x201c;" horiz-adv-x="416" 
d="M184 642q-25 -15 -45 -42t-24 -52q6 3 15 3q23 0 39 -17t16 -42q0 -26 -18 -44.5t-44 -18.5q-30 0 -50.5 23t-20.5 63q0 48 24 91t64 71zM360 642q-25 -16 -45 -42.5t-24 -51.5q6 3 15 3q23 0 39 -17t16 -42q0 -26 -18.5 -44.5t-43.5 -18.5q-30 0 -51 23t-21 63
q0 48 24.5 91t64.5 71z" />
    <glyph glyph-name="quotedblright" unicode="&#x201d;" horiz-adv-x="416" 
d="M57 464q25 15 45 42t24 52q-6 -3 -15 -3q-24 0 -40 17t-16 42q0 26 18.5 44.5t44.5 18.5q30 0 50.5 -23t20.5 -63q0 -48 -24.5 -91t-64.5 -71zM232 464q25 16 45 42.5t24 51.5q-6 -3 -15 -3q-23 0 -39 17t-16 42q0 26 18.5 44.5t44.5 18.5q30 0 50.5 -23t20.5 -63
q0 -48 -24.5 -91t-64.5 -71z" />
    <glyph glyph-name="quotedblbase" unicode="&#x201e;" horiz-adv-x="415" 
d="M57 -95q25 15 45 42t24 52q-4 -2 -15 -2q-24 0 -40 16.5t-16 41.5q0 26 18.5 44.5t44.5 18.5q30 0 50.5 -23t20.5 -63q0 -48 -24.5 -91t-64.5 -71zM232 -95q25 16 45 42.5t24 51.5q-4 -2 -15 -2q-23 0 -39 16.5t-16 41.5q0 26 18.5 44.5t44.5 18.5q30 0 50.5 -23
t20.5 -63q0 -48 -24.5 -91t-64.5 -71z" />
    <glyph glyph-name="dagger" unicode="&#x2020;" horiz-adv-x="268" 
d="M161 327h-55l5 205l-89 -4v50l89 -3l-5 102h55l-4 -102l89 3v-50l-89 4z" />
    <glyph glyph-name="daggerdbl" unicode="&#x2021;" horiz-adv-x="268" 
d="M157 532v-206l89 4v-50l-89 3l4 -103h-55l4 103l-88 -3v50l88 -4v206l-88 -4v50l88 -3l-4 102h55l-4 -102l89 3v-50z" />
    <glyph glyph-name="bullet" unicode="&#x2022;" horiz-adv-x="358" 
d="M101 163.5q-33 32.5 -33 78.5q0 47 33 79.5t79 32.5q47 0 79.5 -32.5t32.5 -79.5q0 -46 -33 -78.5t-79 -32.5t-79 32.5z" />
    <glyph glyph-name="ellipsis" unicode="&#x2026;" horiz-adv-x="717" 
d="M74 8.5q-19 19.5 -19 45.5t19 45t45 19q27 0 46 -19t19 -45t-19 -45.5t-46 -19.5q-26 0 -45 19.5zM313 8.5q-19 19.5 -19 45.5t19 45t45 19q27 0 46 -19t19 -45t-19 -45.5t-46 -19.5q-26 0 -45 19.5zM552 8.5q-19 19.5 -19 45.5t19 45t45 19q27 0 46 -19t19 -45
t-19 -45.5t-46 -19.5q-26 0 -45 19.5z" />
    <glyph glyph-name="perthousand" unicode="&#x2030;" horiz-adv-x="855" 
d="M58.5 393.5q-34.5 46.5 -34.5 117.5q0 72 34.5 119t91.5 47t91.5 -47t34.5 -119q0 -71 -34.5 -117.5t-91.5 -46.5t-91.5 46.5zM129 0l276 667h47l-277 -667h-46zM106 587q-16 -29 -16 -76q0 -46 16 -75t44 -29t44 29t16 75q0 47 -16 76t-44 29t-44 -29zM338.5 34.5
q-34.5 46.5 -34.5 117.5q0 72 34.5 119t91.5 47t91.5 -47t34.5 -119q0 -71 -34.5 -117.5t-91.5 -46.5t-91.5 46.5zM614 34.5q-34 46.5 -34 117.5q0 72 34 119t91 47t91.5 -47t34.5 -119q0 -71 -34.5 -117.5t-91.5 -46.5t-91 46.5zM386 228q-16 -29 -16 -76q0 -46 16 -74.5
t44 -28.5t44 28.5t16 74.5q0 47 -16 76t-44 29t-44 -29zM661 228q-16 -29 -16 -76q0 -46 16 -74.5t44 -28.5t44 28.5t16 74.5q0 47 -16 76t-44 29t-44 -29z" />
    <glyph glyph-name="guilsinglleft" unicode="&#x2039;" horiz-adv-x="225" 
d="M30 243l90 177h75l-90 -177l90 -180h-75z" />
    <glyph glyph-name="guilsinglright" unicode="&#x203a;" horiz-adv-x="225" 
d="M30 63l90 180l-90 177h75l90 -177l-90 -180h-75z" />
    <glyph glyph-name="fraction" unicode="&#x2044;" horiz-adv-x="125" 
d="M-99 0l276 667h47l-277 -667h-46z" />
    <glyph glyph-name="Euro" unicode="&#x20ac;" horiz-adv-x="427" 
d="M292.5 107q16.5 26 24.5 73l85 -31q-17 -70 -53 -115.5t-104 -45.5q-81 0 -128 65.5t-60 179.5h-42v61h37q-1 13 -1 39q0 28 1 41h-37v62h42q14 113 60.5 177.5t127.5 64.5q66 0 100.5 -40t54.5 -105l-84 -31q-12 42 -28 62.5t-43 20.5q-65 0 -82 -149h108v-62h-112
q-1 -13 -1 -41q0 -26 1 -39h112v-61h-108q15 -152 82 -152q31 0 47.5 26z" />
    <glyph glyph-name="trademark" unicode="&#x2122;" horiz-adv-x="374" 
d="M87 447h-28v194h-42v26h112v-26h-42v-194zM311 629l-55 -182h-8l-55 182v-182h-28v220h43l44 -157l44 157h43v-220h-28v182z" />
    <glyph glyph-name="minus" unicode="&#x2212;" horiz-adv-x="381" 
d="M29 368h323v-62h-323v62z" />
    <glyph glyph-name="glyph224" horiz-adv-x="232" 
d="M111 306l-58 -60l-42 43l110 111h63v-400h-73v306z" />
    <glyph glyph-name="glyph225" horiz-adv-x="281" 
d="M29 54q71 84 103 124.5t43.5 65t11.5 49.5q0 24 -14 39t-37 15q-21 0 -39.5 -13t-31.5 -36l-45 42q44 66 120 66q54 0 86.5 -29.5t32.5 -81.5q0 -29 -13 -58.5t-41 -68.5t-85 -109h141v-59h-232v54z" />
    <glyph glyph-name="glyph226" horiz-adv-x="281" 
d="M66 11q-32 18 -49 47l48 43q27 -49 71 -49q27 0 40.5 17t13.5 45q0 33 -17 47.5t-41 14.5q-22 0 -28 -1v59q5 -1 25 -1q26 0 41 14t15 42q0 58 -50 58q-21 0 -38.5 -12t-29.5 -33l-46 40q19 31 50 47.5t68 16.5q53 0 85 -27.5t32 -80.5q0 -32 -19.5 -58.5t-47.5 -32.5
q30 -5 51.5 -32.5t21.5 -64.5q0 -53 -33 -85t-90 -32q-41 0 -73 18z" />
    <glyph glyph-name="glyph227" horiz-adv-x="281" 
d="M232 0h-72v95h-145v58l129 247h88v-247h35v-58h-35v-95zM77 153h83v166z" />
    </font>
</defs>
</svg>
